# OBJ generated by ONSHAPE BY PTC INC, 1.197 Units = meters
mtllib Part Studio 1 - Part 1.mtl
g Part 1
v 0.0508 0.0508 0.127 
v 0.0508 0.0508 0 
v -0.0508 0.0508 0 
v -0.0508 0.0508 0.127 
v 0.0508 -0.0508 0.127 
v -0.0508 -0.0508 0.127 
v -0.0508 -0.0508 0 
v 0.0508 -0.0508 0 
v -0.0508 0.028728 0.0363523 
v -0.0508 -0.028728 0.0363523 
v -0.0508 -0.028728 0.109607 
v -0.0508 0.028728 0.109607 
v 0.0508 -0.028728 0.109607 
v 0.0508 0.028728 0.109607 
v 0.0508 -0.028728 0.0363523 
v 0.0508 0.028728 0.0363523 
vn 0 1 0 
vn 0 0 1 
vn 0 -1 0 
vn 0 0 -1 
vn -1 1.36592e-16 0 
vn 1 -1.36592e-16 0 
vn -1.36592e-16 -1 0 
vn 0 0 -1 
vn 1.36592e-16 1 0 
vn 0 0 1 
usemtl 0.615686_0.811765_0.929412_0.000000_0.000000
o mesh0
f 1//1 2//1 3//1 
f 3//1 4//1 1//1 
o mesh1
f 5//2 1//2 4//2 
f 4//2 6//2 5//2 
o mesh2
f 6//3 7//3 8//3 
f 8//3 5//3 6//3 
o mesh3
f 7//4 3//4 2//4 
f 2//4 8//4 7//4 
o mesh4
f 4//5 3//5 9//5 
f 3//5 7//5 10//5 
f 10//5 9//5 3//5 
f 6//5 11//5 10//5 
f 4//5 12//5 11//5 
f 10//5 7//5 6//5 
f 9//5 12//5 4//5 
f 11//5 6//5 4//5 
o mesh5
f 5//6 13//6 14//6 
f 5//6 8//6 15//6 
f 15//6 13//6 5//6 
f 8//6 2//6 16//6 
f 16//6 15//6 8//6 
f 1//6 14//6 16//6 
f 16//6 2//6 1//6 
f 14//6 1//6 5//6 
o mesh6
f 14//7 12//7 9//7 
f 9//7 16//7 14//7 
o mesh7
f 11//8 12//8 14//8 
f 14//8 13//8 11//8 
o mesh8
f 10//9 11//9 13//9 
f 13//9 15//9 10//9 
o mesh9
f 16//10 9//10 10//10 
f 10//10 15//10 16//10 
